<svg xmlns="http://www.w3.org/2000/svg" width="2560" height="1097" viewBox="0 0 2560 1097" role="img" aria-label="Temporary placeholder awaiting photography: A single rear extension photographed from one fixed tripod position as the light falls, from late afternoon to dusk with the interior lights coming on. 16 frames, locked off, no camera movement between frames. Interval shoot over roughly 40 minutes.">
<defs><linearGradient id="sky" x1="0" y1="0" x2="0" y2="1">
    <stop offset="0" stop-color="#5c6579"/>
    <stop offset="1" stop-color="#e69f77"/>
  </linearGradient></defs>
<rect x="0" y="0" width="2560" height="740" fill="url(#sky)"/>
<rect x="0" y="740" width="2560" height="357" fill="#525c3e"/>
<rect x="0" y="740" width="2560" height="50" fill="#beb083" opacity="0.5"/>
<polygon points="340,471 1130,363 1920,471" fill="#2d2b2e"/>
<rect x="392" y="471" width="1477" height="268" fill="#9c9998"/>
<rect x="1869" y="504" width="407" height="235" fill="#777169"/>
<rect x="539" y="536" width="176" height="113" fill="#ffc259"/>
<rect x="539" y="649" width="281" height="33" fill="#FFC259" opacity="0.18"/>
<rect x="835" y="536" width="176" height="113" fill="#ffc259"/>
<rect x="835" y="649" width="281" height="33" fill="#FFC259" opacity="0.18"/>
<rect x="1130" y="536" width="176" height="113" fill="#ffc259"/>
<rect x="1130" y="649" width="281" height="33" fill="#FFC259" opacity="0.18"/>
<rect x="1426" y="536" width="176" height="113" fill="#ffc259"/>
<rect x="1426" y="649" width="281" height="33" fill="#FFC259" opacity="0.18"/>
<rect x="0" y="987" width="2560" height="110" fill="#221C19" opacity="0.1"/>
<rect x="0" y="976" width="2560" height="121" fill="#221C19" opacity="0.82"/>
<text x="51" y="1019.5" font-family="ui-monospace, Menlo, monospace" font-size="29" fill="#FCFAF7">home-hero-sequence-10 · frame 10 of 16 · 21:9 · 2560×1097</text>
<text x="51" y="1063" font-family="ui-monospace, Menlo, monospace" font-size="25" fill="#FCFAF7" opacity="0.72">AWAITING PHOTOGRAPHY — A single rear extension photographed from one fixed tripod position as the light falls, from…</text>
<rect x="0.5" y="0.5" width="2559" height="1096" fill="none" stroke="#221C19" stroke-opacity="0.2"/>
</svg>
