<svg xmlns="http://www.w3.org/2000/svg" width="2560" height="1097" viewBox="0 0 2560 1097" role="img" aria-label="Temporary placeholder awaiting photography: A single rear extension photographed from one fixed tripod position as the light falls, from late afternoon to dusk with the interior lights coming on. 16 frames, locked off, no camera movement between frames. Interval shoot over roughly 40 minutes.">
<defs><linearGradient id="sky" x1="0" y1="0" x2="0" y2="1">
    <stop offset="0" stop-color="#545a6f"/>
    <stop offset="1" stop-color="#e5996e"/>
  </linearGradient></defs>
<rect x="0" y="0" width="2560" height="660" fill="url(#sky)"/>
<rect x="0" y="660" width="2560" height="437" fill="#4c553a"/>
<rect x="0" y="660" width="2560" height="61" fill="#beb083" opacity="0.5"/>
<polygon points="406,318 1152,179 1897,318" fill="#2b2a2d"/>
<rect x="458" y="318" width="1388" height="343" fill="#7d4d3b"/>
<rect x="1846" y="351" width="299" height="310" fill="#4a2921"/>
<rect x="596" y="400" width="330" height="144" fill="#ffc259"/>
<rect x="596" y="544" width="529" height="33" fill="#FFC259" opacity="0.18"/>
<rect x="1152" y="400" width="330" height="144" fill="#ffc259"/>
<rect x="1152" y="544" width="529" height="33" fill="#FFC259" opacity="0.18"/>
<rect x="0" y="987" width="2560" height="110" fill="#221C19" opacity="0.1"/>
<rect x="0" y="976" width="2560" height="121" fill="#221C19" opacity="0.82"/>
<text x="51" y="1019.5" font-family="ui-monospace, Menlo, monospace" font-size="29" fill="#FCFAF7">home-hero-sequence-11 · frame 11 of 16 · 21:9 · 2560×1097</text>
<text x="51" y="1063" font-family="ui-monospace, Menlo, monospace" font-size="25" fill="#FCFAF7" opacity="0.72">AWAITING PHOTOGRAPHY — A single rear extension photographed from one fixed tripod position as the light falls, from…</text>
<rect x="0.5" y="0.5" width="2559" height="1096" fill="none" stroke="#221C19" stroke-opacity="0.2"/>
</svg>
