<svg xmlns="http://www.w3.org/2000/svg" width="2560" height="1097" viewBox="0 0 2560 1097" role="img" aria-label="Temporary placeholder awaiting photography: A single rear extension photographed from one fixed tripod position as the light falls, from late afternoon to dusk with the interior lights coming on. 16 frames, locked off, no camera movement between frames. Interval shoot over roughly 40 minutes.">
<defs><linearGradient id="sky" x1="0" y1="0" x2="0" y2="1">
    <stop offset="0" stop-color="#2e243e"/>
    <stop offset="1" stop-color="#de7341"/>
  </linearGradient></defs>
<rect x="0" y="0" width="2560" height="741" fill="url(#sky)"/>
<rect x="0" y="741" width="2560" height="356" fill="#2a2e26"/>
<rect x="0" y="741" width="2560" height="50" fill="#beb083" opacity="0.5"/>
<polygon points="174,433 988,328 1801,433" fill="#232629"/>
<rect x="225" y="433" width="1525" height="308" fill="#4f352a"/>
<rect x="1750" y="466" width="454" height="275" fill="#2b211f"/>
<rect x="378" y="507" width="242" height="129" fill="#ffc259"/>
<rect x="378" y="636" width="387" height="33" fill="#FFC259" opacity="0.18"/>
<rect x="784" y="507" width="242" height="129" fill="#ffc259"/>
<rect x="784" y="636" width="387" height="33" fill="#FFC259" opacity="0.18"/>
<rect x="1191" y="507" width="242" height="129" fill="#ffc259"/>
<rect x="1191" y="636" width="387" height="33" fill="#FFC259" opacity="0.18"/>
<rect x="0" y="987" width="2560" height="110" fill="#221C19" opacity="0.1"/>
<rect x="0" y="976" width="2560" height="121" fill="#221C19" opacity="0.82"/>
<text x="51" y="1019.5" font-family="ui-monospace, Menlo, monospace" font-size="29" fill="#FCFAF7">home-hero-sequence-16 · frame 16 of 16 · 21:9 · 2560×1097</text>
<text x="51" y="1063" font-family="ui-monospace, Menlo, monospace" font-size="25" fill="#FCFAF7" opacity="0.72">AWAITING PHOTOGRAPHY — A single rear extension photographed from one fixed tripod position as the light falls, from…</text>
<rect x="0.5" y="0.5" width="2559" height="1096" fill="none" stroke="#221C19" stroke-opacity="0.2"/>
</svg>
