<svg xmlns="http://www.w3.org/2000/svg" width="2560" height="1097" viewBox="0 0 2560 1097" role="img" aria-label="Temporary placeholder awaiting photography: A single rear extension photographed from one fixed tripod position as the light falls, from late afternoon to dusk with the interior lights coming on. 16 frames, locked off, no camera movement between frames. Interval shoot over roughly 40 minutes.">
<defs><linearGradient id="sky" x1="0" y1="0" x2="0" y2="1">
    <stop offset="0" stop-color="#5d646a"/>
    <stop offset="1" stop-color="#9f876f"/>
  </linearGradient></defs>
<rect x="0" y="0" width="2560" height="732" fill="url(#sky)"/>
<rect x="0" y="732" width="2560" height="365" fill="#404436"/>
<rect x="0" y="732" width="2560" height="51" fill="#979371" opacity="0.5"/>
<polygon points="196,461 935,330 1674,461" fill="#2f3031"/>
<rect x="247" y="461" width="1375" height="271" fill="#634c42"/>
<rect x="1623" y="494" width="437" height="238" fill="#382723"/>
<rect x="385" y="526" width="327" height="114" fill="#f0c98a"/>
<rect x="385" y="640" width="524" height="33" fill="#F0C98A" opacity="0.18"/>
<rect x="935" y="526" width="327" height="114" fill="#f0c98a"/>
<rect x="935" y="640" width="524" height="33" fill="#F0C98A" opacity="0.18"/>
<rect x="0" y="987" width="2560" height="110" fill="#1B1917" opacity="0.1"/>
<rect x="0" y="976" width="2560" height="121" fill="#1B1917" opacity="0.88"/>
<text x="51" y="1019.5" font-family="ui-monospace, Menlo, monospace" font-size="29" fill="#F4EFE7">home-hero-sequence-12 · frame 12 of 16 · 21:9 · 2560×1097</text>
<text x="51" y="1063" font-family="ui-monospace, Menlo, monospace" font-size="25" fill="#F4EFE7" opacity="0.72">AWAITING PHOTOGRAPHY — A single rear extension photographed from one fixed tripod position as the light falls, from…</text>
<rect x="0.5" y="0.5" width="2559" height="1096" fill="none" stroke="#1B1917" stroke-opacity="0.2"/>
</svg>
