<svg xmlns="http://www.w3.org/2000/svg" width="2560" height="1097" viewBox="0 0 2560 1097" role="img" aria-label="Temporary placeholder awaiting photography: A single rear extension photographed from one fixed tripod position as the light falls, from late afternoon to dusk with the interior lights coming on. 16 frames, locked off, no camera movement between frames. Interval shoot over roughly 40 minutes.">
<defs><linearGradient id="sky" x1="0" y1="0" x2="0" y2="1">
    <stop offset="0" stop-color="#393738"/>
    <stop offset="1" stop-color="#c46f40"/>
  </linearGradient></defs>
<rect x="0" y="0" width="2560" height="712" fill="url(#sky)"/>
<rect x="0" y="712" width="2560" height="385" fill="#3b3d2e"/>
<rect x="0" y="712" width="2560" height="54" fill="#a79972" opacity="0.5"/>
<polygon points="348,369 1222,223 2097,369" fill="#262729"/>
<rect x="399" y="369" width="1647" height="342" fill="#5b3525"/>
<rect x="2045" y="402" width="323" height="309" fill="#35211e"/>
<rect x="563" y="452" width="392" height="144" fill="#f2b23c"/>
<rect x="563" y="595" width="627" height="33" fill="#F2B23C" opacity="0.18"/>
<rect x="1222" y="452" width="392" height="144" fill="#f2b23c"/>
<rect x="1222" y="595" width="627" height="33" fill="#F2B23C" opacity="0.18"/>
<rect x="0" y="987" width="2560" height="110" fill="#1A1512" opacity="0.1"/>
<rect x="0" y="976" width="2560" height="121" fill="#1A1512" opacity="0.88"/>
<text x="51" y="1019.5" font-family="ui-monospace, Menlo, monospace" font-size="29" fill="#F7F2E7">home-hero-sequence-13 · frame 13 of 16 · 21:9 · 2560×1097</text>
<text x="51" y="1063" font-family="ui-monospace, Menlo, monospace" font-size="25" fill="#F7F2E7" opacity="0.72">AWAITING PHOTOGRAPHY — A single rear extension photographed from one fixed tripod position as the light falls, from…</text>
<rect x="0.5" y="0.5" width="2559" height="1096" fill="none" stroke="#1A1512" stroke-opacity="0.2"/>
</svg>
