<svg xmlns="http://www.w3.org/2000/svg" width="1200" height="1500" viewBox="0 0 1200 1500" role="img" aria-label="Temporary placeholder awaiting photography: The asbestos sample being taken from the eaves lining, licensed removalist in PPE.">
<rect x="0" y="0" width="1200" height="1101" fill="#f4efe7"/>
<polygon points="0,0 1200,0 961,311 239,311" fill="#f3efe8"/>
<polygon points="0,0 239,311 239,988 0,1500" fill="#d4c9b8"/>
<polygon points="1200,0 961,311 961,988 1200,1500" fill="#ffffff"/>
<rect x="239" y="311" width="722" height="677" fill="#f4efe7"/>
<rect x="386" y="419" width="253" height="352" fill="#F7F2E9"/>
<rect x="386" y="419" width="253" height="120" fill="#FFFFFF" opacity="0.4"/>
<rect x="386" y="419" width="253" height="352" fill="none" stroke="#221c19" stroke-width="5"/>
<polygon points="0,1500 239,988 961,988 1200,1500" fill="#cd9b62"/>
<polygon points="386,988 639,988 791,1500 285,1500" fill="#FFFFFF" opacity="0.13"/>
<rect x="143" y="773" width="465" height="305" fill="#221c19"/>
<rect x="143" y="773" width="465" height="24" fill="#c5baa7"/>
<rect x="0" y="0" width="1200" height="75" fill="#221C19" opacity="0.06"/>
<rect x="0" y="1335" width="1200" height="165" fill="#221C19" opacity="0.82"/>
<text x="24" y="1381.5" font-family="ui-monospace, Menlo, monospace" font-size="31" fill="#FCFAF7">west-ryde-constraint · 4:5 · 1200×1500</text>
<text x="24" y="1428" font-family="ui-monospace, Menlo, monospace" font-size="26" fill="#FCFAF7" opacity="0.72">AWAITING PHOTOGRAPHY — The asbestos sample being taken from the eaves lining, licensed removalist in PPE.</text>
<rect x="0.5" y="0.5" width="1199" height="1499" fill="none" stroke="#221C19" stroke-opacity="0.2"/>
</svg>
